<?xml version="1.0" encoding="utf-8"?>
<!-- Generator: Adobe Illustrator 19.2.0, SVG Export Plug-In . SVG Version: 6.00 Build 0)  -->
<svg version="1.1" id="Layer_1" xmlns:svg="http://www.w3.org/2000/svg"
	 xmlns="http://www.w3.org/2000/svg" xmlns:xlink="http://www.w3.org/1999/xlink" x="0px" y="0px" viewBox="0 0 400 200"
	 style="enable-background:new 0 0 400 200;" xml:space="preserve">
<style type="text/css">
	.st0{fill:#731012;}
</style>
<g id="g3" transform="matrix(4.1088215,0,0,4.1088215,-948.74374,-1232.6468)">
	<path id="path7" class="st0" d="M258.7,326.3c0,0,0,0-0.5,0c-0.5,0-0.5-0.8-0.5-1.4c0-0.6-0.1-3.5-0.1-5.5c0-2-0.9-2.5-1.4-3
		c-0.5-0.6-2-2.4-2-2.4c-0.1-0.1-0.3-0.2-0.4-0.1c0,0-1.5,0.6-2.7,1.5c-1.2,0.8-0.5,1.7,0.1,2.8c0.7,1.1,0.7,1.2,0.9,1.1
		c0.2-0.1,0.1-0.5,0.1-0.9c0-0.4,0.7-0.8,1.6-1.5c0.9-0.7,0.9,0.4,1,1.7c0.1,1.3,0.2,5.6,0.2,7.1s-0.3,1.6-0.6,1.6
		c-0.3,0-0.5-0.4-0.6-1.1c-0.1-0.8-0.4-4-0.4-4c0-0.1,0.1-0.3,0.2-0.4l0.8-0.7c0.1-0.1,0.1-0.2,0-0.3c0,0-0.2-0.1-3.8,0.1
		c-0.4,0-0.8,0.1-1.1,0.1v-8.3l1.1-1.4c0.1-0.1,0-0.2-0.1-0.2c0,0-1.7,0.2-2.3,0.2c-0.6,0-2.8,0-2.8,0c-0.1,0-0.2,0.1-0.1,0.2
		l0.9,1.1c0,0,0,0,0,0v9.8c-0.7,0.5-1.4,1.1-2.2,1.6c-0.5,0.3-1,0.6-1.5,0.7v-10.3c0-0.1,0-0.7,0.2-0.9l0.5-0.7
		c0.1-0.1,0-0.2-0.1-0.2h-2.1c-0.1,0-0.4,0-0.5,0h-2.4c-0.1,0-0.2,0.1-0.1,0.2l0.8,0.8c0.1,0.1,0.2,0.4,0.2,0.9V325
		c-0.1,0-0.2,0-0.3,0c-0.8-0.1-2.5-1.7-2.5-1.7c-0.1-0.1-0.1-0.3,0-0.4c0,0,0.3-0.3,0.5-0.4c0.2-0.2,1-0.6,1-0.6
		c-1.2,0-1.9,0.1-2.3,0.3v1.3l0,0c0.7,1.3,1.9,2,2.9,2.6c0.2,0.1,0.4,0.2,0.6,0.3v6.8c0,0.1-0.1,0.3-0.2,0.4l-1.1,0.9
		c-0.1,0.1-0.1,0.2,0.1,0.2c0,0,2,0.1,3.1,0.1c1,0,2.4,0.4,2.4,0.4c0.1,0,0.2,0,0.1-0.1l-0.8-0.8c-0.1-0.1-0.2-0.3-0.2-0.5v-7.5
		l0.1,0c0.1,0,0.4-0.1,0.5-0.1c0,0,0.7-0.2,1.5-0.5c0.8-0.4,1.6-1,1.6-1c0.1-0.1,0.2,0,0.2,0.1c0,0,0,0.6,0,1.7c0,1.1,0,4.7,0,6.2
		c0,1.6-0.5,2.5-0.9,3.1c-0.5,0.5-0.8,0.8-0.7,0.9c0.1,0.2,0.4,0.1,0.6,0.1c0.2,0,1.4-0.1,1.9-0.1c0.5,0,2.1-0.1,2.9,0.2
		c0.8,0.3,1.1,0.2,1.2-0.1c0-0.1-0.5-0.3-1.1-1.3c-0.4-0.6-0.4-1.4-0.4-2.6c0-1.3,0-7.8,0-9.3c0-1.5,0.1-1.4,0.8-1.7
		c0.7-0.2,1.6-0.5,1.6-0.5c0.1,0,0.2,0,0.1,0.1c0,0,0,0-0.8,0.7c-0.8,0.7-0.7,1.3-0.5,2.6c0.1,0.4,0.4,1.9,0.8,3.5
		c0.4,1.5,1.6,0.8,2.1,0.5c0.5-0.3,1-0.6,1-0.6c0.1-0.1,0.2,0,0.3,0.1c0,0,0.1,0.9,0.8,1c0.7,0.1,0.8-0.3,1.5-1.1
		c0.7-0.7,1.6-1.6,1.6-1.6C258.8,326.4,258.8,326.3,258.7,326.3L258.7,326.3z"/>
	<path id="path9" class="st0" d="M264.9,316.9c0,0-0.1-0.7-0.5-1.8c-0.4-1.1-0.9-2-0.9-2c-0.1-0.1-0.2-0.2-0.3-0.1l-1.8,1.2
		c-0.1-1.4-0.1-2.5-0.1-2.5c0-0.1-0.1-0.2-0.2-0.1l-3.9,3c-0.1,0.1-0.1,0.2,0.1,0.2l1.4,0.1c0.1,0,0.3,0.1,0.3,0.3l0.2,11.4
		c0,0.1-0.1,0.3-0.2,0.4l-0.7,0.7c-0.1,0.1-0.1,0.2,0.1,0.2l4.7-0.2c0.1,0,0.2-0.1,0.1-0.2l-0.7-0.6c-0.1-0.1-0.2-0.3-0.2-0.4
		c0,0-0.2-2.2-0.2-4.3c0-1.2-0.2-4.4-0.3-7l0.1-0.1c0.1-0.1,0.3,0,0.3,0.1c0,0,0.5,2,0.6,2.5c0.1,0.6-0.1,0.7-0.1,0.7
		c-0.1,0.1-0.1,0.2,0,0.4l0,0c0.1,0.1,0.3,0.1,0.4,0l2.1-1.7C264.9,317.2,265,317,264.9,316.9L264.9,316.9z"/>
	<path id="path11" class="st0" d="M271.9,315.2l-1.3-3.3c-0.1-0.1-0.2-0.2-0.3-0.1l-2,1.5v-3.1c0-0.1-0.1-0.2-0.2-0.1l-3.1,3.2
		c-0.1,0.1-0.1,0.2,0,0.3l0.2,0.1c0.1,0.1,0.2,0.2,0.2,0.4l-0.1,11.1c0,0.1-0.1,0.3-0.2,0.4l-0.8,0.8c-0.1,0.1-0.1,0.2,0.1,0.1
		c0,0,0.9-0.2,2-0.2c1.1,0,2.5,0.1,2.5,0.1c0.1,0,0.2-0.1,0.1-0.2l-0.6-0.7c-0.1-0.1-0.2-0.3-0.2-0.5v-10.8c0-0.4,0.2-0.5,0.4-0.6
		c0.3-0.1,0.6,1.2,0.7,1.9c0.1,0.7-0.2,1-0.2,1c-0.1,0.1-0.1,0.2,0,0.4l0,0c0.1,0.1,0.3,0.1,0.4,0l2.3-1.9
		C271.9,315.5,272,315.3,271.9,315.2L271.9,315.2z"/>
	<path id="path13" class="st0" d="M268.7,318.9c-0.1-0.1-0.1-0.2,0.1-0.2l3.9-0.1c0.1,0,0.2,0.1,0.1,0.1l-0.4,0.3
		c-0.1,0.1-0.2,0.3-0.1,0.4l1,4.1c0,0.1,0.1,0.2,0.2,0c0,0,1.2-2.4,1.5-3.1c0.2-0.7,0.7-2.1,0.7-2.1c0-0.1,0-0.3-0.1-0.4l-0.6-0.4
		c-0.1-0.1-0.1-0.2,0.1-0.1l3,0.2c0.1,0,0.2,0.1,0.1,0.3c0,0-2.3,5-3.4,7.4c-1.2,2.4-5.3,9.4-5.3,9.4c-0.1,0.1-0.3,0.2-0.4,0.2
		c0,0-4.3-0.6-5.9-0.9c-1.6-0.4-4.4-2-4.4-2c-0.1-0.1-0.2-0.2-0.1-0.4c0,0,0.6-1.2,0.8-1.6c0.2-0.4,0.9-0.9,0.9-0.9
		c0.1-0.1,0.3-0.2,0.4-0.1l2.8,0.2c0.1,0,0.1,0.1,0,0.2l-1.7,0.7c-0.1,0.1-0.3,0.2-0.3,0.3l-0.4,0.9c-0.1,0.2,0,0.5,0.1,0.5l6.8,0.5
		c0.1,0,0.3-0.1,0.4-0.2l2.2-4.6c0.1-0.1,0.1-0.3,0.1-0.5l-1.5-7.4c0-0.1-0.2-0.3-0.3-0.4L268.7,318.9L268.7,318.9z"/>
	<path id="path15" class="st0" d="M299.3,315.4c0.1,0,0.3,0.1,0.3,0.3l0,13.7c0,0.1,0.1,0.3,0.2,0.4l3.3,1.9c0.1,0.1,0.3,0,0.3-0.1
		l0,0c0.1-0.1,0-0.3-0.1-0.4l-1.2-0.9c-0.1-0.1-0.2-0.3-0.2-0.4l0.4-14.2c0-0.1,0.1-0.3,0.3-0.3l1,0c0.1,0,0.3-0.1,0.2-0.3l0-0.8
		c0-0.1-0.1-0.3-0.3-0.3l-1.1,0c-0.1,0-0.3-0.1-0.3-0.3l-0.1-3.3c0-0.1-0.1-0.2-0.2-0.1c0,0-1,1.3-2,2.3c-1.6,1.6-2.8,2.5-2.8,2.5
		c-0.1,0.1-0.1,0.2,0.1,0.2L299.3,315.4L299.3,315.4z"/>
	<path id="path17" class="st0" d="M304.3,317.1c0.1,0,0.3,0.1,0.3,0.3l0.2,13c0,0.1,0.1,0.3,0.2,0.4l5.1,2.3c0.1,0.1,0.3,0,0.4-0.1
		l1.3-1.6c0.1-0.1,0.2-0.3,0.4-0.4l0.3-0.2c0.1-0.1,0.1-0.2,0-0.2l-3.6-0.2c-0.1,0-0.2,0.1-0.2,0.2c0,0.1,0.1,0.2,0.3,0.2l1.8,0.3
		c0.1,0,0.2,0.1,0.1,0.2l-0.6,0.7c-0.1,0.1-0.3,0.1-0.4,0.1l-1.7-0.9c-0.1-0.1-0.2-0.2-0.2-0.4l-0.2-13.3c0-0.1,0.1-0.3,0.2-0.3
		l1.4-0.1c0.1,0,0.3-0.1,0.2-0.3l0-0.6c0-0.1-0.1-0.3-0.3-0.3l-1.4,0c-0.1,0-0.3-0.1-0.3-0.3l-0.1-4c0-0.1-0.1-0.2-0.1,0
		c0,0-1.5,2.4-2.2,3.2c-0.7,0.8-1.9,2-1.9,2c-0.1,0.1-0.1,0.2,0.1,0.2L304.3,317.1L304.3,317.1z"/>
	<path id="path19" class="st0" d="M312.5,315c0.1-0.1,0.3-0.1,0.4,0l2.5,1.3c0.1,0.1,0.3,0.2,0.3,0.4l1,2.9c0,0.1,0,0.3-0.1,0.5
		l-1,1.3c-0.1,0.1-0.3,0.2-0.4,0.2l-3.2-0.7c-0.1,0-0.2,0.1-0.2,0.2l0.2,5.3c0,0.1,0.1,0.3,0.2,0.4l0.9,0.9c0.1,0.1,0.2,0.1,0.3-0.1
		l1-3.4c0-0.1,0.1-0.2,0.2,0l1,1.4c0.1,0.1,0.1,0.3,0,0.4l-1.7,2.4c-0.1,0.1-0.3,0.2-0.4,0.2l-1.5-0.1c-0.1,0-0.3-0.1-0.4-0.2
		l-2.3-2.4c-0.1-0.1-0.2-0.3-0.2-0.4l0.3-7.5c0-0.1,0.1-0.3,0.2-0.4L312.5,315L312.5,315z M312.3,316.3c-0.1,0-0.3,0.2-0.3,0.3
		l-0.1,3c0,0.1,0.1,0.3,0.2,0.3l2.1,0.3c0.1,0,0.2-0.1,0.1-0.2l-1.6-3.6c-0.1-0.1-0.2-0.2-0.4-0.2L312.3,316.3L312.3,316.3z"/>
	<path id="path21" class="st0" d="M316.9,317.1c0.1,0,0.3,0.2,0.3,0.3c0,0,0.2,7.6,0.2,9.2c0,2.4-1.5,2.7-1.5,2.7
		c-0.1,0-0.1,0.1,0,0.1c0,0,1.2,0.4,2.9,0.8c1.7,0.4,4.4,0.3,4.4,0.3c0.1,0,0.1-0.1,0-0.1c0,0-1.6-0.6-2-0.8
		c-0.4-0.2-0.8-0.3-0.9-3.6c-0.1-4-0.2-9-0.2-9c0-0.1,0.1-0.3,0.2-0.4l0,0c0.1-0.1,0.3,0,0.3,0.1l0.8,2.2c0,0.1,0,0.3-0.1,0.4
		l-0.4,0.6c-0.1,0.1-0.1,0.3,0,0.4c0.1,0.1,0.3,0.1,0.4,0c0,0,1.3-1,1.7-1.4c0.4-0.4,1-1,1-1c0,0,0-0.1,0.1-0.1v-0.3l-1.7-3.3
		c-0.1-0.1-0.2-0.2-0.3-0.1l-1.7,1c-0.1,0.1-0.2,0-0.2-0.1l-0.1-1.3c0-0.1-0.1-0.2-0.2-0.1l-3.2,3.1c-0.1,0.1-0.1,0.2,0.1,0.2
		L316.9,317.1L316.9,317.1z"/>
	<path id="path23" class="st0" d="M298.4,322.2c0-1.4-0.2-3.5-0.2-3.5c0-0.1-0.1-0.3-0.2-0.4c0,0-0.4-0.5-1.3-1.3
		c-0.9-0.8-1.4-0.9-1.4-0.9c-0.1-0.1-0.3-0.1-0.4-0.1l-2.3,1.1c-0.1,0.1-0.3,0.2-0.5,0.2L291,318c-0.1,0.1-0.2,0.2-0.2,0.4
		c0,0-0.1,0.2-0.1,0.7c-0.3-0.1-0.7-0.2-1-0.3c0.1-0.7,0.2-2,0.3-3.6c0.1-2.2,0.1-2.7,0.1-2.7c0-0.1-0.1-0.3-0.2-0.5
		c0,0-2.9-4-2.9-4c0,0,0-0.1-0.1-0.1c0,0-8.5,0.5-8.5,0.5s1.3,1.1,1.4,1.1c0.1,0.1,0.1,0.1,0.1,0.2c0,0.1,0.5,4.4,0.6,5
		c0.1,1.2,0.4,2.3,0.2,2.4c-0.2,0.1-0.9-0.7-0.9-0.7s0.6,6.6,0.8,8.1c0.2,1.4,0.4,3.2,0.3,3.2c-0.1,0-0.9-1.1-0.9-1.1l1.9,17.9
		c0,0,0.2-2.7,0.4-4.2c0.1-1.5,0.3-5.6,0.6-5.6c0.3,0,0.9,1.2,0.9,1.2s-0.1-5.5-0.1-7c0-1.5-0.2-3.7,0.1-3.7
		c0.2-0.1,1.1,2.2,1.1,2.2s-0.3-4.7-0.4-8.5l1.2,2c0.1,0.1,0.2,0.2,0.4,0.2c0,0,1.4-0.2,2.2-0.5c0.8-0.3,1.4-1,1.4-1c0,0,0,0,0,0
		l1.1,0.4c0,0.5,0,1,0,1.7c0,2.7,0.2,4.5,0.2,4.5c0,0.1,0.1,0.3,0.2,0.4c0,0,0.5,0.6,1.3,1.3c0.8,0.7,1.7,1.3,1.7,1.3
		c0.1,0.1,0.3,0.1,0.4,0.1c0,0,1.2-0.4,2.1-0.8c0.7-0.4,1.8-1.2,1.8-1.2c0.1-0.1,0.2-0.2,0.2-0.4
		C298.4,327.1,298.4,323.6,298.4,322.2L298.4,322.2z M286.4,319.1l-0.4,0.5c-0.1,0.1-0.2,0.1-0.3,0l-0.6-0.8c-0.1-0.1,0-0.2,0.1-0.2
		l1.1,0.2C286.5,318.9,286.5,319,286.4,319.1L286.4,319.1z M286.3,317.6c0,0-0.2,0-0.6,0c-0.3,0-1,0.2-1.4,0.3
		c-0.1-3-0.1-6.6-0.1-8.6l1.9,0.1c0.2,0,0.2,0.1,0.2,0.2l0.3,7.8C286.6,317.5,286.4,317.6,286.3,317.6L286.3,317.6z M293.1,318.6
		c0-0.1,0.1-0.3,0.2-0.4l1.4-1c0.1-0.1,0.2,0,0.1,0.1c0,0-0.3,0.8-0.7,1.2c-0.4,0.4-0.8,0.6-0.8,0.6c-0.1,0.1-0.2,0-0.3-0.1
		L293.1,318.6L293.1,318.6z M295.5,327.5c0,0.1-0.1,0.3-0.2,0.4l-0.8,0.5c-0.1,0.1-0.3,0-0.4-0.1l-0.6-0.7c-0.1-0.1-0.2-0.3-0.2-0.5
		l-0.1-6.9c0-0.1,0.1-0.3,0.2-0.3l1.5-0.3c0.1,0,0.3,0.1,0.3,0.2c0,0,0.2,1.2,0.3,3.7S295.5,327.5,295.5,327.5L295.5,327.5z"/>
	<path id="path51" class="st0" d="M289.4,337.6C289.4,337.6,289.4,337.6,289.4,337.6C289.4,337.6,289.4,337.6,289.4,337.6
		C289.4,337.6,289.4,337.6,289.4,337.6L289.4,337.6z"/>
</g>
</svg>
