<?xml version="1.0" encoding="utf-8"?>
<!-- Generator: Adobe Illustrator 19.2.0, SVG Export Plug-In . SVG Version: 6.00 Build 0)  -->
<svg version="1.1" id="Layer_1" xmlns="http://www.w3.org/2000/svg" xmlns:xlink="http://www.w3.org/1999/xlink" x="0px" y="0px"
	 viewBox="0 0 1248.8 140.2" style="enable-background:new 0 0 1248.8 140.2;" xml:space="preserve">
<style type="text/css">
	.st0{fill:#731012;}
</style>
<g>
	<path class="st0" d="M536.8,53.5c-1.3,0-2.5-0.3-3.5-1c-1-0.7-1.7-1.6-2-2.7c-2.6,2.6-5.9,4-10.1,4c-2.2,0-3.9-0.7-5.3-2
		c-1.4-1.3-2.1-3-2.1-5c0-4.9,5.8-8.9,17.5-12l0.2-5.6V29c0-1.7-0.4-3.1-1.3-4.1c-0.9-1-2-1.5-3.4-1.5c-1.4,0-2.6,0.3-3.6,1
		c-1,0.7-1.5,1.5-1.5,2.6c0,1.5-0.4,2.7-1.2,3.6c-0.8,0.9-1.8,1.3-3.1,1.3c-0.8,0-1.4-0.2-1.9-0.7c-0.5-0.5-0.7-1.1-0.7-1.8
		c0-1.8,1.7-3.8,5-5.8c3.4-2,6.5-3,9.4-3c2.6,0,4.7,0.8,6.3,2.3c1.6,1.5,2.4,3.6,2.4,6.2v0.4l-0.5,16.3v0.3c0,2.5,0.8,3.8,2.4,3.8
		c0.8,0,1.7-0.5,2.8-1.4l0.3-0.1c0.2,0,0.4,0.1,0.5,0.4c0.2,0.3,0.3,0.5,0.3,0.8c0,0.7-0.7,1.5-2.2,2.6
		C540.1,53,538.5,53.5,536.8,53.5z M531.3,37.2c-7,1.6-10.5,4.2-10.5,7.9c0,3.4,1.3,5.1,3.9,5.1c1.3,0,2.5-0.3,3.7-1
		c1.2-0.6,2.1-1.4,2.5-2.4L531.3,37.2z"/>
	<path class="st0" d="M582.3,51.7c0,0.7-0.2,1-0.6,1c-1,0-2.1-0.1-3.5-0.2c-1.5-0.1-2.9-0.2-4.1-0.2c-1.2,0-2.6,0.1-4.1,0.2
		c-1.4,0.1-2.6,0.2-3.6,0.2c-0.4,0-0.6-0.3-0.6-1c0-0.6,0.2-0.9,0.6-1c1.7-0.2,2.7-0.7,3.3-1.4c0.5-0.7,0.8-2.3,0.8-4.7v-12
		c0-2.7-0.5-4.7-1.6-5.9c-1.1-1.2-2.7-1.9-4.9-1.9c-1.4,0-2.6,0.3-3.7,0.8c-1.1,0.5-2.2,1.5-3.4,2.8v16.2c0,2.4,0.3,3.9,0.8,4.7
		c0.5,0.7,1.6,1.2,3.3,1.4c0.4,0,0.6,0.4,0.6,1c0,0.7-0.2,1-0.6,1c-1,0-2.2-0.1-3.6-0.2c-1.6-0.1-2.9-0.2-4.1-0.2
		c-1.2,0-2.5,0.1-4,0.2c-1.4,0.1-2.6,0.2-3.6,0.2c-0.4,0-0.6-0.3-0.6-1c0-0.6,0.2-0.9,0.6-1c2.1-0.3,3.4-0.8,4-1.5
		c0.6-0.7,0.9-2.3,0.9-4.6V31.3c0-1.9-0.2-3.2-0.7-3.8c-0.5-0.6-1.6-1-3.3-1.2c-0.4,0-0.6-0.3-0.6-1c0-0.6,0.2-0.9,0.6-0.9
		c2.4-0.6,4.4-1.3,5.9-2s2.6-1.4,3-1.9c0.2-0.3,0.5-0.4,0.8-0.4c0.7,0,1,0.2,1,0.6l-0.3,4.5c3.4-3.2,6.7-4.8,9.6-4.8
		c3.3,0,5.8,0.9,7.6,2.8s2.7,4.4,2.7,7.6v13.8c0,2.4,0.3,3.9,0.9,4.6c0.6,0.7,1.9,1.2,3.9,1.5C582.1,50.7,582.3,51.1,582.3,51.7z"/>
	<path class="st0" d="M620.3,50.3c0,0.5-0.2,0.8-0.6,0.8c-1.4,0.2-3,0.5-4.8,1s-3.2,1-4.2,1.5c-0.5,0.3-0.9,0.4-1.2,0.4
		c-0.4,0-0.6-0.2-0.6-0.6l0.3-3.9c-2.5,2.8-5.8,4.2-9.7,4.2c-4.2,0-7.7-1.6-10.6-4.8s-4.4-7-4.4-11.5c0-5.1,1.6-9.2,4.8-12.3
		c3.2-3.1,7.3-4.7,12.1-4.7c2.8,0,5.4,0.9,7.7,2.6v-12c0-1.9-0.2-3.2-0.7-3.8c-0.5-0.6-1.6-1-3.3-1.2c-0.4,0-0.6-0.4-0.6-0.9
		c0-0.6,0.2-1,0.6-1c2.3-0.5,4.2-1.2,5.9-1.9c1.7-0.7,2.8-1.4,3.4-2c0.2-0.2,0.5-0.4,0.8-0.4c0.7,0,1,0.2,1,0.6
		c-0.4,5.2-0.6,9.4-0.6,12.5v31.7c0,1.7,0.2,2.8,0.7,3.3c0.5,0.6,1.6,1,3.3,1.2C620.1,49.3,620.3,49.6,620.3,50.3z M609.3,46.4V28
		c0-1.2-0.7-2.4-2.2-3.5c-1.5-1.1-3-1.7-4.7-1.7c-7,0-10.5,4.9-10.5,14.8c0,3.9,0.8,7.1,2.5,9.7c1.7,2.6,3.9,3.9,6.6,3.9
		c1.6,0,3-0.4,4.2-1.1C606.5,49.3,607.9,48.1,609.3,46.4z"/>
	<path class="st0" d="M663.6,24c0,1.3-0.3,1.9-0.9,1.9l-10.7-0.3v17.3c0,4.5,1.6,6.8,4.8,6.8c2,0,3.8-0.5,5.4-1.4
		c0.2,0,0.4,0.1,0.5,0.4c0.2,0.3,0.2,0.5,0.2,0.8c0,0.6-0.9,1.4-2.7,2.4c-1.8,1-3.8,1.5-6,1.5c-2.7,0-4.9-0.8-6.5-2.5
		c-1.6-1.7-2.4-3.9-2.4-6.6V44l0.1-17.5c0-0.7-0.3-1-0.9-1h-2.7c-0.5,0-0.8-0.3-0.8-0.9c0-0.5,0.2-0.8,0.6-1.1
		c3.3-2,6.2-4.8,8.7-8.4c0.3-0.4,0.6-0.6,1-0.6c0.7,0,1,0.2,1,0.6l-0.3,6.9h10.6C663.3,22.1,663.6,22.7,663.6,24z"/>
	<path class="st0" d="M704.9,51.7c0,0.7-0.2,1-0.6,1c-1,0-2.1-0.1-3.6-0.2c-1.5-0.1-2.9-0.2-4-0.2c-1.2,0-2.6,0.1-4.2,0.2
		c-1.4,0.1-2.6,0.2-3.6,0.2c-0.4,0-0.6-0.3-0.6-1c0-0.6,0.2-0.9,0.6-1c1.7-0.2,2.7-0.7,3.3-1.4c0.5-0.7,0.8-2.3,0.8-4.7v-12
		c0-5.2-2.4-7.8-7.1-7.8c-3,0-5.6,1.2-7.7,3.6v16.2c0,2.2,0.3,3.7,0.9,4.5c0.6,0.8,1.9,1.4,3.7,1.6c0.4,0,0.6,0.4,0.6,1
		c0,0.7-0.2,1-0.6,1c-1,0-2.3-0.1-3.8-0.2c-1.8-0.1-3.2-0.2-4.4-0.2c-1.2,0-2.6,0.1-4.1,0.2c-1.4,0.1-2.5,0.2-3.5,0.2
		c-0.4,0-0.6-0.3-0.6-1c0-0.6,0.2-0.9,0.6-1c2-0.2,3.3-0.7,3.9-1.4c0.6-0.7,0.9-2.3,0.9-4.7V11.2c0-1.9-0.2-3.2-0.7-3.8
		c-0.5-0.6-1.6-1-3.3-1.2c-0.4,0-0.6-0.4-0.6-0.9c0-0.6,0.2-1,0.6-1c4.1-1,7.1-2.2,9.1-3.8c0.4-0.3,0.7-0.4,0.9-0.4
		c0.7,0,1,0.2,1,0.6c-0.4,3.9-0.6,8.1-0.6,12.5v12.2c3.4-3.3,6.8-4.9,10.2-4.9c3.4,0,6.1,0.9,8.1,2.8s2.9,4.4,2.9,7.6v13.8
		c0,2.4,0.3,3.9,0.9,4.6c0.6,0.7,1.9,1.2,4,1.5C704.8,50.7,704.9,51.1,704.9,51.7z"/>
	<path class="st0" d="M736.2,32.2c0,0.7-0.4,1-1.3,1h-19.7c-0.1,1.3-0.2,2.6-0.2,4c0,3.9,0.9,6.8,2.8,8.9c1.8,2.1,4.4,3.1,7.8,3.1
		c1.7,0,3.4-0.5,5.1-1.4c1.7-0.9,3.1-2.1,4.2-3.5l0.2-0.1c0.2,0,0.4,0.1,0.6,0.4s0.3,0.6,0.3,0.9c0,0.5-0.8,1.6-2.3,3.1
		s-3.2,2.8-5,3.7s-3.7,1.3-5.7,1.3c-4.3,0-8-1.6-10.9-4.8c-3-3.2-4.4-7.1-4.4-11.7c0-4.7,1.4-8.7,4.3-12c2.9-3.3,6.6-4.9,11-4.9
		c3.7,0,6.8,1.2,9.4,3.7C735,26.6,736.2,29.3,736.2,32.2z M729.7,29.1c0-1.8-0.6-3.3-1.9-4.5c-1.2-1.2-2.8-1.8-4.8-1.8
		c-1.8,0-3.5,0.8-4.8,2.3c-1.4,1.5-2.3,3.6-2.8,6.1l10-0.3c1.5,0,2.6-0.2,3.2-0.4C729.4,30.2,729.7,29.7,729.7,29.1z"/>
	<path class="st0" d="M410.1,89.8c0,0.3-0.1,0.5-0.3,0.8c-0.2,0.2-0.4,0.4-0.6,0.4c-1.8,0.2-3.2,0.7-4.4,1.7c-1.1,1-2.3,2.8-3.5,5.6
		L383,139.6c-0.1,0.4-0.5,0.6-1,0.6c-0.4,0-0.8-0.2-1-0.6l-10.3-21.5l-11.8,21.5c-0.2,0.4-0.6,0.6-1,0.6c-0.5,0-0.9-0.2-1-0.6
		l-18-41.4c-1.1-2.6-2.3-4.4-3.6-5.4c-1.2-1-3-1.7-5.2-1.9c-0.2,0-0.4-0.1-0.5-0.3c-0.2-0.2-0.3-0.4-0.3-0.7c0-0.7,0.2-1,0.6-1
		c1.6,0,3.3,0.1,5,0.2c1.6,0.1,3.2,0.2,4.6,0.2c1.5,0,3.2-0.1,5.2-0.2c2.1-0.1,3.9-0.2,5.5-0.2c0.4,0,0.6,0.3,0.6,1s-0.1,1-0.4,1
		c-1.6,0.1-2.9,0.5-3.8,1.2c-0.9,0.7-1.4,1.6-1.4,2.7c0,0.6,0.2,1.3,0.6,2.2l14.7,33.7l8.6-16.1l-7.9-16.5c-1.4-3-2.6-4.9-3.5-5.7
		c-0.9-0.9-2.3-1.4-4.1-1.6c-0.2,0-0.3-0.1-0.5-0.3c-0.2-0.2-0.2-0.4-0.2-0.7c0-0.7,0.2-1,0.5-1c1.6,0,3.1,0.1,4.4,0.2
		c1.3,0.1,2.7,0.2,4.1,0.2c1.4,0,3-0.1,4.6-0.2c1.7-0.1,3.3-0.2,4.9-0.2c0.4,0,0.6,0.3,0.6,1s-0.1,1-0.4,1c-3.2,0.2-4.8,1.1-4.8,2.8
		c0,0.7,0.4,1.8,1.1,3.4l5.2,10.6l5.2-9.7c0.7-1.4,1.1-2.5,1.1-3.5c0-2.2-1.6-3.4-4.8-3.5c-0.3,0-0.4-0.3-0.4-1
		c0-0.2,0.1-0.5,0.2-0.7s0.3-0.3,0.4-0.3c1.2,0,2.6,0.1,4.2,0.2c1.6,0.1,2.9,0.2,4,0.2c0.7,0,1.8-0.1,3.3-0.2
		c1.8-0.2,3.3-0.3,4.6-0.3c0.3,0,0.4,0.3,0.4,0.8c0,0.8-0.3,1.1-0.8,1.1c-1.9,0.2-3.4,0.7-4.5,1.6c-1.1,0.8-2.6,2.8-4.3,5.8
		l-6.9,12.8l9.3,19.1L398,98c0.5-1.2,0.7-2.3,0.7-3.3c0-2.4-1.6-3.6-4.8-3.8c-0.3,0-0.4-0.3-0.4-1s0.2-1,0.6-1
		c1.2,0,2.6,0.1,4.2,0.2c1.5,0.1,2.7,0.2,3.7,0.2c1.1,0,2.3-0.1,3.7-0.2c1.4-0.1,2.7-0.2,3.9-0.2C409.9,89,410.1,89.3,410.1,89.8z"
		/>
	<path class="st0" d="M437.7,138.1c0,0.7-0.2,1-0.6,1c-1.6,0-3.5-0.1-5.7-0.2c-2.1-0.1-3.9-0.2-5.4-0.2c-1.5,0-3.3,0.1-5.4,0.2
		c-2.2,0.1-4.2,0.2-5.8,0.2c-0.4,0-0.6-0.3-0.6-1c0-0.6,0.2-0.9,0.6-1c2.9-0.3,4.9-0.9,5.9-1.6c1-0.7,1.6-2.2,1.6-4.5V97.1
		c0-1.7-0.2-2.9-0.6-3.5s-1.2-1.2-2.2-1.6c-1.1-0.4-2.6-0.7-4.6-1c-0.4,0-0.6-0.3-0.6-1s0.2-1,0.6-1c1.6,0,3.6,0.1,5.8,0.2
		c2.1,0.1,3.9,0.2,5.4,0.2c1.5,0,3.3-0.1,5.4-0.2c2.2-0.1,4.1-0.2,5.7-0.2c0.4,0,0.6,0.3,0.6,1s-0.2,1-0.6,1c-2,0.2-3.6,0.6-4.6,1
		c-1.1,0.4-1.8,0.9-2.2,1.6c-0.4,0.7-0.6,1.9-0.6,3.6V131c0,1.7,0.2,2.8,0.6,3.5s1.1,1.2,2.2,1.6s2.6,0.7,4.6,1
		C437.5,137.1,437.7,137.5,437.7,138.1z"/>
	<path class="st0" d="M489.2,126.8c-1.3,5.4-2.2,9.6-2.5,12.5c-2.4-0.5-9.4-0.7-20.9-0.7c-11.9,0-19,0.2-21.2,0.7
		c-0.6,0-0.9-0.4-0.9-1.3l0.1-0.6l34.6-45.8h-16.2c-7.3,0-12.4,3.3-15.3,9.8c-0.2,0.5-0.5,0.7-0.8,0.7c-0.8,0-1.2-0.3-1.2-0.8
		l0.1-0.5c2.1-5.6,3.4-9.7,4-12.3c2,0.5,8.4,0.7,19,0.7c11.3,0,17.8-0.2,19.8-0.7c0.6,0,0.9,0.5,0.9,1.4c0,0.2-0.1,0.4-0.2,0.6
		l-34.5,45.7h19.1c3.5,0,6.4-0.9,8.9-2.6c2.5-1.7,4.2-4.2,5.2-7.3c0.1-0.4,0.4-0.6,0.8-0.6C488.8,125.9,489.2,126.2,489.2,126.8z"/>
	<path class="st0" d="M542.8,138.1c0,0.7-0.2,1-0.6,1c-1.7,0-3.5-0.1-5.6-0.2c-1.8-0.1-3.3-0.2-4.6-0.2c-1.5,0-3.3,0.1-5.4,0.2
		c-2.3,0.1-4.2,0.2-5.8,0.2c-0.4,0-0.6-0.3-0.6-1c0-0.7,0.1-1,0.4-1c2.1-0.1,3.7-0.4,4.6-0.9c0.9-0.5,1.4-1.2,1.4-2.2
		c0-0.6-0.2-1.6-0.7-3l-4.1-12.1H507l-4.1,11.2c-0.5,1.5-0.8,2.7-0.8,3.5c0,2.1,1.9,3.3,5.8,3.5c0.3,0,0.4,0.3,0.4,1
		c0,0.7-0.2,1-0.6,1c-1.4,0-3-0.1-4.8-0.2c-1.7-0.1-3.1-0.2-4.4-0.2c-1,0-2.3,0.1-3.9,0.2c-1.6,0.1-3,0.2-4.2,0.2
		c-0.4,0-0.5-0.3-0.5-0.9c0-0.7,0.3-1,0.8-1.1c2-0.2,3.6-0.7,4.7-1.7c1.2-0.9,2.4-2.8,3.6-5.6L516,88.5c0.1-0.4,0.5-0.6,1-0.6
		c0.6,0,0.9,0.2,1.1,0.5l14.9,41.4c0.8,2.3,2,4,3.4,5.1c1.4,1.1,3.3,1.8,5.7,2.1C542.6,137.1,542.8,137.5,542.8,138.1z M521,116.7
		l-6.3-18.3l-6.8,18.3H521z"/>
	<path class="st0" d="M595.1,138.1c0,0.7-0.2,1-0.6,1c-0.9,0-2.3-0.1-4.4-0.3c-1.5-0.1-2.4-0.2-2.9-0.2c-0.7,0-1.8,0.1-3.3,0.2
		c-1.5,0.1-2.6,0.2-3.3,0.2l-10.9-17.8c-1.5-2.5-2.8-4-3.7-4.7c-0.9-0.7-2.9-1-5.7-1V131c0,1.7,0.2,2.8,0.6,3.5
		c0.4,0.7,1.2,1.2,2.2,1.6c1.1,0.4,2.6,0.7,4.6,1c0.4,0,0.6,0.4,0.6,1c0,0.7-0.2,1-0.6,1c-1.6,0-3.5-0.1-5.8-0.2
		c-2.1-0.1-3.9-0.2-5.4-0.2c-1.5,0-3.3,0.1-5.4,0.2c-2.2,0.1-4.1,0.2-5.7,0.2c-0.4,0-0.6-0.3-0.6-1c0-0.6,0.2-0.9,0.6-1
		c2-0.2,3.5-0.6,4.6-1s1.8-0.9,2.2-1.6c0.4-0.7,0.6-1.8,0.6-3.5V97.1c0-1.7-0.2-2.8-0.6-3.5s-1.1-1.2-2.2-1.6
		c-1.1-0.4-2.6-0.7-4.6-1c-0.4,0-0.6-0.3-0.6-1s0.2-1,0.6-1c1.6,0,3.5,0.1,5.7,0.2c2.1,0.1,3.9,0.2,5.4,0.2c1.5,0,3.3-0.1,5.4-0.2
		c2.2-0.1,4.2-0.2,5.8-0.2c5.4,0,9.5,1.1,12.4,3.4c2.9,2.2,4.4,5.4,4.4,9.4c0,2.6-1,4.9-2.9,7.1c-1.9,2.2-4.6,3.9-7.8,5.1L585,132
		c1,1.6,2.2,2.7,3.7,3.5c1.5,0.8,3.5,1.3,5.9,1.6C594.9,137.1,595.1,137.5,595.1,138.1z M576.7,102c0-7-3.1-10.5-9.2-10.5
		c-2,0-3.5,0.2-4.6,0.5s-1.7,0.8-2.1,1.5c-0.3,0.7-0.5,1.9-0.5,3.7v16.1c1.4,0.2,3.1,0.3,5.3,0.3c3.9,0,6.7-0.9,8.5-2.7
		C575.9,108.9,576.7,106,576.7,102z"/>
	<path class="st0" d="M651.8,114.4c0,7.4-2.5,13.4-7.4,17.9c-4.9,4.5-11.6,6.8-20.1,6.8c-1.1,0-3.2,0-6.4-0.1
		c-3.3-0.1-5.5-0.1-6.6-0.1c-4.5,0-8.8,0.1-13,0.3c-0.4,0-0.6-0.3-0.6-1c0-0.6,0.2-0.9,0.6-1c2-0.2,3.5-0.6,4.6-1s1.8-0.9,2.2-1.6
		c0.4-0.7,0.6-1.8,0.6-3.5V97.2c0-1.7-0.2-2.8-0.6-3.5s-1.1-1.2-2.2-1.6c-1.1-0.4-2.6-0.7-4.6-1c-0.4,0-0.6-0.3-0.6-1s0.2-1,0.6-1
		c2.8,0.2,7.2,0.3,13,0.3c1.1,0,3.3,0,6.6-0.1c3.2-0.1,5.4-0.1,6.4-0.1c8.2,0,14.8,2.3,19.9,7C649.3,100.9,651.8,107,651.8,114.4z
		 M643.9,114.4c0-6.5-1.9-12-5.6-16.3c-3.7-4.3-8.4-6.5-14-6.5h-0.2l-6.8,0.1c-2.8,0.1-4.2,1.5-4.2,4.2v36.5c0,2.7,1.4,4.1,4.2,4.1
		l6.8,0.2c5.6,0,10.3-2.1,14.1-6.4C642,126.1,643.9,120.7,643.9,114.4z"/>
	<path class="st0" d="M719,103.7c0,4.2-1.6,7.8-4.9,10.6c-3.2,2.9-7.3,4.3-12.1,4.3c-2.9,0-5.7-0.1-8.5-0.4V131
		c0,1.7,0.2,2.9,0.6,3.5c0.4,0.7,1.2,1.2,2.2,1.6s2.6,0.7,4.6,1c0.4,0,0.6,0.4,0.6,1c0,0.7-0.2,1-0.6,1c-1.6,0-3.5-0.1-5.7-0.2
		c-2.1-0.1-3.9-0.2-5.4-0.2c-1.5,0-3.3,0.1-5.4,0.2c-2.2,0.1-4.2,0.2-5.8,0.2c-0.4,0-0.6-0.3-0.6-1c0-0.6,0.2-0.9,0.6-1
		c2.9-0.3,4.9-0.9,5.9-1.6c1-0.7,1.6-2.2,1.6-4.5V97.1c0-1.7-0.2-2.9-0.6-3.5c-0.4-0.7-1.2-1.2-2.2-1.6c-1.1-0.4-2.6-0.7-4.6-1
		c-0.4,0-0.6-0.3-0.6-1s0.2-1,0.6-1c1.6,0,3.5,0.1,5.8,0.2c2.1,0.1,3.9,0.2,5.4,0.2c1.5,0,3.2-0.1,5.4-0.2c2.2-0.1,4.1-0.2,5.7-0.2
		c5.9,0,10.4,1.2,13.4,3.7S719,98.9,719,103.7z M711,103.7c0-3.9-0.9-6.9-2.8-9s-4.4-3.2-7.5-3.2c-1.9,0-3.3,0.1-4.3,0.4
		c-1,0.3-1.7,0.8-2.2,1.4c-0.4,0.7-0.6,1.9-0.6,3.9v16.6c0,1,0.3,1.7,1,2.1c0.6,0.3,2.1,0.5,4.2,0.5c3.9,0,6.9-1.1,9.1-3.4
		C709.9,110.7,711,107.6,711,103.7z"/>
	<path class="st0" d="M767.9,138.1c0,0.7-0.2,1-0.6,1c-1.7,0-3.5-0.1-5.6-0.2c-1.8-0.1-3.3-0.2-4.6-0.2c-1.5,0-3.3,0.1-5.4,0.2
		c-2.3,0.1-4.2,0.2-5.8,0.2c-0.4,0-0.6-0.3-0.6-1c0-0.7,0.1-1,0.4-1c2.1-0.1,3.7-0.4,4.6-0.9c0.9-0.5,1.4-1.2,1.4-2.2
		c0-0.6-0.2-1.6-0.7-3l-4.1-12.1h-14.8l-4.1,11.2c-0.5,1.5-0.8,2.7-0.8,3.5c0,2.1,1.9,3.3,5.8,3.5c0.3,0,0.4,0.3,0.4,1
		c0,0.7-0.2,1-0.6,1c-1.4,0-3-0.1-4.8-0.2c-1.7-0.1-3.1-0.2-4.4-0.2c-1,0-2.3,0.1-3.9,0.2c-1.6,0.1-3,0.2-4.2,0.2
		c-0.4,0-0.5-0.3-0.5-0.9c0-0.7,0.3-1,0.8-1.1c2-0.2,3.6-0.7,4.7-1.7c1.2-0.9,2.4-2.8,3.6-5.6l16.8-41.4c0.1-0.4,0.5-0.6,1-0.6
		c0.6,0,0.9,0.2,1.1,0.5l14.9,41.4c0.8,2.3,2,4,3.4,5.1c1.4,1.1,3.3,1.8,5.7,2.1C767.7,137.1,767.9,137.5,767.9,138.1z M746.1,116.7
		l-6.3-18.3l-6.8,18.3H746.1z"/>
	<path class="st0" d="M820.2,138.1c0,0.7-0.2,1-0.6,1c-0.9,0-2.3-0.1-4.4-0.3c-1.5-0.1-2.4-0.2-2.9-0.2c-0.7,0-1.8,0.1-3.3,0.2
		c-1.5,0.1-2.6,0.2-3.3,0.2l-10.9-17.8c-1.5-2.5-2.8-4-3.7-4.7c-0.9-0.7-2.9-1-5.7-1V131c0,1.7,0.2,2.8,0.6,3.5s1.2,1.2,2.2,1.6
		c1.1,0.4,2.6,0.7,4.6,1c0.4,0,0.6,0.4,0.6,1c0,0.7-0.2,1-0.6,1c-1.6,0-3.5-0.1-5.8-0.2c-2.1-0.1-3.9-0.2-5.4-0.2
		c-1.5,0-3.3,0.1-5.4,0.2c-2.2,0.1-4.1,0.2-5.7,0.2c-0.4,0-0.6-0.3-0.6-1c0-0.6,0.2-0.9,0.6-1c2-0.2,3.5-0.6,4.6-1
		c1.1-0.4,1.8-0.9,2.2-1.6c0.4-0.7,0.6-1.8,0.6-3.5V97.1c0-1.7-0.2-2.8-0.6-3.5c-0.4-0.7-1.1-1.2-2.2-1.6c-1.1-0.4-2.6-0.7-4.6-1
		c-0.4,0-0.6-0.3-0.6-1s0.2-1,0.6-1c1.6,0,3.5,0.1,5.7,0.2c2.1,0.1,3.9,0.2,5.4,0.2c1.5,0,3.3-0.1,5.4-0.2c2.2-0.1,4.2-0.2,5.8-0.2
		c5.4,0,9.5,1.1,12.4,3.4c2.9,2.2,4.4,5.4,4.4,9.4c0,2.6-1,4.9-2.9,7.1c-1.9,2.2-4.6,3.9-7.8,5.1l11.1,18.1c1,1.6,2.2,2.7,3.7,3.5
		c1.5,0.8,3.5,1.3,5.9,1.6C820,137.1,820.2,137.5,820.2,138.1z M801.8,102c0-7-3.1-10.5-9.2-10.5c-2,0-3.5,0.2-4.6,0.5
		s-1.7,0.8-2.1,1.5c-0.3,0.7-0.5,1.9-0.5,3.7v16.1c1.4,0.2,3.1,0.3,5.3,0.3c3.9,0,6.7-0.9,8.5-2.7C800.9,108.9,801.8,106,801.8,102z
		"/>
	<path class="st0" d="M867.3,100.8c0,0.5-0.4,0.7-1.3,0.7c-0.4,0-0.6-0.2-0.7-0.5c-1-3.4-2.5-5.8-4.4-7.2c-1.9-1.4-4.8-2.1-8.5-2.1
		h-3.4c-1.2,0-2,0.2-2.4,0.6c-0.4,0.4-0.6,1.1-0.6,2.2V131c0,1.7,0.2,2.8,0.6,3.5c0.4,0.7,1.2,1.2,2.2,1.6s2.6,0.7,4.6,1
		c0.4,0,0.6,0.4,0.6,1c0,0.7-0.2,1-0.6,1c-1.6,0-3.5-0.1-5.8-0.2c-2.1-0.1-3.9-0.2-5.3-0.2c-1.5,0-3.3,0.1-5.4,0.2
		c-2.2,0.1-4.2,0.2-5.8,0.2c-0.4,0-0.6-0.3-0.6-1c0-0.6,0.2-0.9,0.6-1c2.9-0.3,4.9-0.9,5.9-1.6c1-0.7,1.6-2.2,1.6-4.5V94.5
		c0-1.1-0.2-1.8-0.6-2.2c-0.4-0.4-1.2-0.6-2.4-0.6h-2.8c-3.4,0-6.5,0.9-9.2,2.6c-2.8,1.7-4.6,3.9-5.4,6.7c-0.1,0.4-0.4,0.5-0.8,0.5
		c-0.8,0-1.2-0.3-1.2-0.8c1.3-3.6,2.6-7.7,3.8-12.3c3.3,0.7,10.7,1,22.4,1c12,0,19.6-0.3,22.9-1C865.5,91.5,866.2,95.7,867.3,100.8z
		"/>
	<path class="st0" d="M923.5,90c0,0.3-0.1,0.5-0.3,0.7c-0.2,0.2-0.3,0.3-0.5,0.3c-2.4,0.3-4.2,0.8-5.4,1.5c-1.2,0.7-2.6,2.3-4.3,4.7
		l-13.5,19.4V131c0,1.6,0.1,2.8,0.4,3.5c0.3,0.7,0.9,1.2,1.9,1.6c1,0.4,2.5,0.8,4.6,1c0.4,0,0.6,0.4,0.6,1c0,0.7-0.2,1-0.6,1
		c-1.6,0-3.4-0.1-5.4-0.2c-1.9-0.1-3.7-0.2-5.1-0.2c-1.4,0-3.2,0.1-5.3,0.2c-2.2,0.1-4.2,0.2-5.8,0.2c-0.4,0-0.6-0.3-0.6-1
		c0-0.6,0.2-0.9,0.6-1c2.9-0.3,4.9-0.9,5.9-1.6c1-0.7,1.6-2.2,1.6-4.5v-14.3l-12.5-19.5c-1.7-2.4-3.2-4-4.5-4.7s-3-1.2-5.2-1.4
		c-0.4,0-0.6-0.3-0.6-1s0.2-1,0.6-1c1.1,0,2.7,0.1,4.6,0.2c2.1,0.1,3.8,0.2,5.1,0.2c1.2,0,2.9-0.1,5.1-0.2c2.5-0.1,4.6-0.2,6.3-0.2
		c0.4,0,0.6,0.3,0.6,1s-0.2,1-0.6,1c-3.1,0.4-4.7,1.3-4.7,2.5c0,1,0.5,2.2,1.5,3.7l10.4,16.2l10.9-16.3c0.8-1.1,1.2-2.1,1.2-3
		c0-0.9-0.4-1.6-1.3-2.1c-0.9-0.5-2.3-0.8-4.3-1.1c-0.3,0-0.4-0.3-0.4-1s0.2-1,0.6-1c1.4,0,3.1,0.1,5.2,0.2c2,0.1,3.6,0.2,5,0.2
		c1.2,0,2.5-0.1,3.9-0.2c1.4-0.1,2.7-0.2,4-0.2C923.3,89,923.5,89.3,923.5,90z"/>
</g>
<rect x="0" y="35.7" class="st0" width="477" height="3"/>
<rect x="771.8" y="35.7" class="st0" width="477" height="3"/>
</svg>
